<svg width="50" height="50" viewBox="0 0 50 50" fill="none" xmlns="http://www.w3.org/2000/svg">
<rect width="50" height="50" rx="10" fill="black"/>
<path d="M24.5 10.5C14.5 11.7 20.3334 17.6667 24.5 20.5L26.5 12.5L32 20.5L24.5 25.5C23.3334 28.5 22.1 33.7 26.5 30.5C30.9 27.3 32 33.8333 32 37.5C29.5 38.8333 26 41 32 39C38 37 34.5 30.5 32 27.5C36.4 21.9 34.5 16.1667 33 14L41 17V24.5V39L29.5 42.5L17 42L14.5 32C11.1667 30.1667 6.7 27.6 15.5 32C24.3 36.4 19.1667 27.8333 15.5 23L14.5 15.5V8L21 7L29.5 8L39.5 9L44 14L47.5 24.5L47 34.5L44.5 41C43 42.5 39.9 45.6 39.5 46C39 46.5 40.5 46 34.5 46C29.7 46 17.1667 46 11.5 46L12 41H9L6.5 35.5L11.5 36L9.5 32.5L5 30.5" stroke="white"/>
</svg>
